# xmcd
# Track frame offsets:
# 150
# 17145
# 33750
# 49962
# 64402
# 76005
# 92332
# 115375
# 131405
# 147565
# 162612
# 181780
#
# Disc length: 2585 seconds
# Revision: 0
# Processed by: cddbd v1.4PL0 Copyright (c) Steve Scherf et al.
# Submitted via: VisiTrax 2.9.5.181 - For more info visit www.synapsa.com
#
DISCID=9d0a170c
DTITLE=Sick´n Blues - Milk The Duck
DYEAR=2002
DGENRE=Blues
TTITLE0=Tell me what´s the reason
TTITLE1=Talk about love
TTITLE2=In one eyeand out the other
TTITLE3=Back in business
TTITLE4=Back door man
TTITLE5=I don´t believe
TTITLE6=Tin pan alley
TTITLE7=Don´t whrite no more
TTITLE8=Jump and shout
TTITLE9=Up the line
TTITLE10=Lesson to be learned
TTITLE11=My kind of baby
EXTD=
EXTT0=
EXTT1=
EXTT2=
EXTT3=
EXTT4=
EXTT5=
EXTT6=
EXTT7=
EXTT8=
EXTT9=
EXTT10=
EXTT11=
PLAYORDER=
